<?xml version="1.0" encoding="UTF-8" standalone="no"?>
<!DOCTYPE svg PUBLIC "-//W3C//DTD SVG 1.1//EN"
 "http://www.w3.org/Graphics/SVG/1.1/DTD/svg11.dtd">
<!-- Generated by graphviz version 14.1.1 (20251213.1925)
 -->
<!-- Pages: 1 -->
<svg width="376pt" height="109pt"
 viewBox="0.00 0.00 376.00 109.00" xmlns="http://www.w3.org/2000/svg" xmlns:xlink="http://www.w3.org/1999/xlink">
<g id="graph0" class="graph" transform="scale(1 1) rotate(0) translate(4 105)">
<polygon fill="white" stroke="none" points="-4,4 -4,-105 372.41,-105 372.41,4 -4,4"/>
<!-- lfo1 -->
<g id="node1" class="node">
<title>lfo1</title>
<path fill="none" stroke="black" d="M49.05,-95C49.05,-95 19.05,-95 19.05,-95 13.05,-95 7.05,-89 7.05,-83 7.05,-83 7.05,-71 7.05,-71 7.05,-65 13.05,-59 19.05,-59 19.05,-59 49.05,-59 49.05,-59 55.05,-59 61.05,-65 61.05,-71 61.05,-71 61.05,-83 61.05,-83 61.05,-89 55.05,-95 49.05,-95"/>
<text xml:space="preserve" text-anchor="middle" x="34.05" y="-72.8" font-family="Times,serif" font-size="14.00">lfo(2)</text>
</g>
<!-- gain1 -->
<g id="node3" class="node">
<title>gain1</title>
<path fill="none" stroke="black" d="M200.96,-47C200.96,-47 170.96,-47 170.96,-47 164.96,-47 158.96,-41 158.96,-35 158.96,-35 158.96,-23 158.96,-23 158.96,-17 164.96,-11 170.96,-11 170.96,-11 200.96,-11 200.96,-11 206.96,-11 212.96,-17 212.96,-23 212.96,-23 212.96,-35 212.96,-35 212.96,-41 206.96,-47 200.96,-47"/>
<text xml:space="preserve" text-anchor="middle" x="185.96" y="-24.8" font-family="Times,serif" font-size="14.00">gain()</text>
</g>
<!-- lfo1&#45;&gt;gain1 -->
<g id="edge2" class="edge">
<title>lfo1&#45;&gt;gain1</title>
<path fill="none" stroke="#666666" stroke-dasharray="5,2" d="M61.43,-66.91C69.32,-63.99 78.03,-60.87 86.1,-58.2 106.35,-51.49 129.19,-44.69 147.81,-39.35"/>
<polygon fill="#666666" stroke="#666666" points="148.68,-42.74 157.34,-36.64 146.76,-36.01 148.68,-42.74"/>
<text xml:space="preserve" text-anchor="middle" x="99.7" y="-62.4" font-family="Times,serif" font-size="14.00">level</text>
</g>
<!-- scale1 -->
<g id="node4" class="node">
<title>scale1</title>
<path fill="none" stroke="black" d="M228.61,-101C228.61,-101 143.3,-101 143.3,-101 137.3,-101 131.3,-95 131.3,-89 131.3,-89 131.3,-77 131.3,-77 131.3,-71 137.3,-65 143.3,-65 143.3,-65 228.61,-65 228.61,-65 234.61,-65 240.61,-71 240.61,-77 240.61,-77 240.61,-89 240.61,-89 240.61,-95 234.61,-101 228.61,-101"/>
<text xml:space="preserve" text-anchor="middle" x="185.96" y="-78.8" font-family="Times,serif" font-size="14.00">scale(200, 2000)</text>
</g>
<!-- lfo1&#45;&gt;scale1 -->
<g id="edge3" class="edge">
<title>lfo1&#45;&gt;scale1</title>
<path fill="none" stroke="black" d="M61.5,-78.06C77.67,-78.71 99.12,-79.56 119.6,-80.38"/>
<polygon fill="black" stroke="black" points="119.19,-83.87 129.32,-80.77 119.47,-76.88 119.19,-83.87"/>
</g>
<!-- saw1 -->
<g id="node2" class="node">
<title>saw1</title>
<path fill="none" stroke="black" d="M56.1,-36C56.1,-36 12,-36 12,-36 6,-36 0,-30 0,-24 0,-24 0,-12 0,-12 0,-6 6,0 12,0 12,0 56.1,0 56.1,0 62.1,0 68.1,-6 68.1,-12 68.1,-12 68.1,-24 68.1,-24 68.1,-30 62.1,-36 56.1,-36"/>
<text xml:space="preserve" text-anchor="middle" x="34.05" y="-13.8" font-family="Times,serif" font-size="14.00">saw(440)</text>
</g>
<!-- saw1&#45;&gt;gain1 -->
<g id="edge1" class="edge">
<title>saw1&#45;&gt;gain1</title>
<path fill="none" stroke="black" d="M68.32,-20.44C91.74,-22.16 123.13,-24.46 147.45,-26.25"/>
<polygon fill="black" stroke="black" points="147.01,-29.72 157.24,-26.97 147.52,-22.74 147.01,-29.72"/>
</g>
<!-- lpf1 -->
<g id="node5" class="node">
<title>lpf1</title>
<path fill="none" stroke="black" stroke-width="2" d="M356.41,-73C356.41,-73 322.04,-73 322.04,-73 316.04,-73 310.04,-67 310.04,-61 310.04,-61 310.04,-49 310.04,-49 310.04,-43 316.04,-37 322.04,-37 322.04,-37 356.41,-37 356.41,-37 362.41,-37 368.41,-43 368.41,-49 368.41,-49 368.41,-61 368.41,-61 368.41,-67 362.41,-73 356.41,-73"/>
<text xml:space="preserve" text-anchor="middle" x="339.22" y="-50.8" font-family="Times,serif" font-size="14.00">lpf(0.5)</text>
</g>
<!-- gain1&#45;&gt;lpf1 -->
<g id="edge4" class="edge">
<title>gain1&#45;&gt;lpf1</title>
<path fill="none" stroke="black" d="M213.3,-33.53C236.6,-37.53 270.96,-43.44 297.75,-48.04"/>
<polygon fill="black" stroke="black" points="297.14,-51.49 307.59,-49.73 298.33,-44.59 297.14,-51.49"/>
</g>
<!-- scale1&#45;&gt;lpf1 -->
<g id="edge5" class="edge">
<title>scale1&#45;&gt;lpf1</title>
<path fill="none" stroke="#666666" stroke-dasharray="5,2" d="M240.71,-73.05C259.57,-69.56 280.41,-65.7 297.97,-62.45"/>
<polygon fill="#666666" stroke="#666666" points="298.57,-65.9 307.77,-60.64 297.3,-59.02 298.57,-65.9"/>
<text xml:space="preserve" text-anchor="middle" x="275.32" y="-73.2" font-family="Times,serif" font-size="14.00">cutoff</text>
</g>
</g>
</svg>
