<svg xmlns="http://www.w3.org/2000/svg" viewBox="0 0 64 64">
	<rect width="64" height="64" rx="12" fill="#121214" />
	<!-- Each leg is one vertical assembly rotated about the apex (32,6).
	     Leg length 59 (y: 6..65), split wire 45% / grip 30% / metal tip 25%. -->
	<g transform="rotate(24, 32, 6)">
		<path d="M32 6 L32 32.5" fill="none" stroke="#e8e8ec" stroke-width="4.5" stroke-linecap="round" />
		<rect x="27.5" y="30" width="9" height="4" rx="1.5" fill="#e8e8ec" />
		<rect x="25.5" y="32.5" width="13" height="17.7" rx="2.5" fill="#e8e8ec" />
		<rect x="29.5" y="50.2" width="5" height="14.8" rx="1.8" fill="#b8b8b8" />
		<rect x="29" y="54" width="6" height="1.8" fill="#121214" />
		<rect x="29" y="58" width="6" height="1.8" fill="#121214" />
	</g>
	<g transform="rotate(-24, 32, 6)">
		<path d="M32 6 L32 32.5" fill="none" stroke="#e8e8ec" stroke-width="4.5" stroke-linecap="round" />
		<rect x="27.5" y="30" width="9" height="4" rx="1.5" fill="#e8e8ec" />
		<rect x="25.5" y="32.5" width="13" height="17.7" rx="2.5" fill="#e8e8ec" />
		<rect x="29.5" y="50.2" width="5" height="14.8" rx="1.8" fill="#b8b8b8" />
		<rect x="29" y="54" width="6" height="1.8" fill="#121214" />
		<rect x="29" y="58" width="6" height="1.8" fill="#121214" />
	</g>
</svg>
