<?xml version="1.0" encoding="UTF-8" standalone="no"?>
<!DOCTYPE svg PUBLIC "-//W3C//DTD SVG 1.1//EN"
 "http://www.w3.org/Graphics/SVG/1.1/DTD/svg11.dtd">
<!-- Generated by graphviz version 14.1.1 (20251213.1925)
 -->
<!-- Pages: 1 -->
<svg width="422pt" height="69pt"
 viewBox="0.00 0.00 422.00 69.00" xmlns="http://www.w3.org/2000/svg" xmlns:xlink="http://www.w3.org/1999/xlink">
<g id="graph0" class="graph" transform="scale(1 1) rotate(0) translate(4 64.8)">
<polygon fill="white" stroke="none" points="-4,4 -4,-64.8 417.55,-64.8 417.55,4 -4,4"/>
<text xml:space="preserve" text-anchor="middle" x="206.77" y="-44.2" font-family="Times,serif" font-size="14.00">Before expansion (3 nodes)</text>
<!-- saw1 -->
<g id="node1" class="node">
<title>saw1</title>
<path fill="none" stroke="black" d="M121.42,-36C121.42,-36 12,-36 12,-36 6,-36 0,-30 0,-24 0,-24 0,-12 0,-12 0,-6 6,0 12,0 12,0 121.42,0 121.42,0 127.42,0 133.42,-6 133.42,-12 133.42,-12 133.42,-24 133.42,-24 133.42,-30 127.42,-36 121.42,-36"/>
<text xml:space="preserve" text-anchor="middle" x="66.71" y="-13.8" font-family="monospace" font-size="14.00">saw([440, 550, 660])</text>
</g>
<!-- lpf2 -->
<g id="node2" class="node">
<title>lpf2</title>
<path fill="none" stroke="black" d="M298.62,-36C298.62,-36 181.42,-36 181.42,-36 175.42,-36 169.42,-30 169.42,-24 169.42,-24 169.42,-12 169.42,-12 169.42,-6 175.42,0 181.42,0 181.42,0 298.62,0 298.62,0 304.62,0 310.62,-6 310.62,-12 310.62,-12 310.62,-24 310.62,-24 310.62,-30 304.62,-36 298.62,-36"/>
<text xml:space="preserve" text-anchor="middle" x="240.02" y="-13.8" font-family="monospace" font-size="14.00">lpf([800, 1200, 1600])</text>
</g>
<!-- saw1&#45;&gt;lpf2 -->
<g id="edge1" class="edge">
<title>saw1&#45;&gt;lpf2</title>
<path fill="none" stroke="black" d="M133.45,-18C141.41,-18 149.6,-18 157.74,-18"/>
<polygon fill="black" stroke="black" points="157.67,-21.5 167.67,-18 157.67,-14.5 157.67,-21.5"/>
</g>
<!-- gain3 -->
<g id="node3" class="node">
<title>gain3</title>
<path fill="none" stroke="black" stroke-width="2" d="M401.55,-36C401.55,-36 358.62,-36 358.62,-36 352.62,-36 346.62,-30 346.62,-24 346.62,-24 346.62,-12 346.62,-12 346.62,-6 352.62,0 358.62,0 358.62,0 401.55,0 401.55,0 407.55,0 413.55,-6 413.55,-12 413.55,-12 413.55,-24 413.55,-24 413.55,-30 407.55,-36 401.55,-36"/>
<text xml:space="preserve" text-anchor="middle" x="380.08" y="-13.8" font-family="monospace" font-size="14.00">gain(0.3)</text>
</g>
<!-- lpf2&#45;&gt;gain3 -->
<g id="edge2" class="edge">
<title>lpf2&#45;&gt;gain3</title>
<path fill="none" stroke="black" d="M310.86,-18C318.85,-18 326.82,-18 334.36,-18"/>
<polygon fill="black" stroke="black" points="334.25,-21.5 344.25,-18 334.25,-14.5 334.25,-21.5"/>
</g>
</g>
</svg>
