<?xml version="1.0" encoding="UTF-8" standalone="no"?>
<!DOCTYPE svg PUBLIC "-//W3C//DTD SVG 1.1//EN"
 "http://www.w3.org/Graphics/SVG/1.1/DTD/svg11.dtd">
<!-- Generated by graphviz version 14.1.1 (20251213.1925)
 -->
<!-- Pages: 1 -->
<svg width="426pt" height="123pt"
 viewBox="0.00 0.00 426.00 123.00" xmlns="http://www.w3.org/2000/svg" xmlns:xlink="http://www.w3.org/1999/xlink">
<g id="graph0" class="graph" transform="scale(1 1) rotate(0) translate(4 118.8)">
<polygon fill="white" stroke="none" points="-4,4 -4,-118.8 422.11,-118.8 422.11,4 -4,4"/>
<text xml:space="preserve" text-anchor="middle" x="209.05" y="-98.2" font-family="Times,serif" font-size="14.00">FlatGraph (expanded)</text>
<!-- lfo1 -->
<g id="node1" class="node">
<title>lfo1</title>
<path fill="none" stroke="black" d="M42,-90C42,-90 12,-90 12,-90 6,-90 0,-84 0,-78 0,-78 0,-66 0,-66 0,-60 6,-54 12,-54 12,-54 42,-54 42,-54 48,-54 54,-60 54,-66 54,-66 54,-78 54,-78 54,-84 48,-90 42,-90"/>
<text xml:space="preserve" text-anchor="middle" x="27" y="-67.8" font-family="monospace" font-size="14.00">lfo(2)</text>
</g>
<!-- scale2 -->
<g id="node2" class="node">
<title>scale2</title>
<path fill="none" stroke="black" d="M188.3,-90C188.3,-90 103,-90 103,-90 97,-90 91,-84 91,-78 91,-78 91,-66 91,-66 91,-60 97,-54 103,-54 103,-54 188.3,-54 188.3,-54 194.3,-54 200.3,-60 200.3,-66 200.3,-66 200.3,-78 200.3,-78 200.3,-84 194.3,-90 188.3,-90"/>
<text xml:space="preserve" text-anchor="middle" x="145.65" y="-67.8" font-family="monospace" font-size="14.00">scale(200, 2000)</text>
</g>
<!-- lfo1&#45;&gt;scale2 -->
<g id="edge1" class="edge">
<title>lfo1&#45;&gt;scale2</title>
<path fill="none" stroke="black" d="M54.47,-72C61.95,-72 70.43,-72 79.14,-72"/>
<polygon fill="black" stroke="black" points="79.12,-75.5 89.12,-72 79.12,-68.5 79.12,-75.5"/>
</g>
<!-- lpf4 -->
<g id="node4" class="node">
<title>lpf4</title>
<path fill="none" stroke="black" d="M302.18,-52C302.18,-52 272.18,-52 272.18,-52 266.18,-52 260.18,-46 260.18,-40 260.18,-40 260.18,-28 260.18,-28 260.18,-22 266.18,-16 272.18,-16 272.18,-16 302.18,-16 302.18,-16 308.18,-16 314.18,-22 314.18,-28 314.18,-28 314.18,-40 314.18,-40 314.18,-46 308.18,-52 302.18,-52"/>
<text xml:space="preserve" text-anchor="middle" x="287.18" y="-29.8" font-family="monospace" font-size="14.00">lpf()</text>
</g>
<!-- scale2&#45;&gt;lpf4 -->
<g id="edge2" class="edge">
<title>scale2&#45;&gt;lpf4</title>
<path fill="none" stroke="#666666" stroke-dasharray="5,2" d="M200.6,-57.31C216.85,-52.88 234.32,-48.12 249.2,-44.07"/>
<polygon fill="#666666" stroke="#666666" points="249.83,-47.53 258.56,-41.52 247.99,-40.77 249.83,-47.53"/>
<text xml:space="preserve" text-anchor="middle" x="230.24" y="-54.86" font-family="monospace" font-size="10.00">cutoff</text>
</g>
<!-- saw3 -->
<g id="node3" class="node">
<title>saw3</title>
<path fill="none" stroke="black" d="M167.7,-36C167.7,-36 123.6,-36 123.6,-36 117.6,-36 111.6,-30 111.6,-24 111.6,-24 111.6,-12 111.6,-12 111.6,-6 117.6,0 123.6,0 123.6,0 167.7,0 167.7,0 173.7,0 179.7,-6 179.7,-12 179.7,-12 179.7,-24 179.7,-24 179.7,-30 173.7,-36 167.7,-36"/>
<text xml:space="preserve" text-anchor="middle" x="145.65" y="-13.8" font-family="monospace" font-size="14.00">saw(440)</text>
</g>
<!-- saw3&#45;&gt;lpf4 -->
<g id="edge3" class="edge">
<title>saw3&#45;&gt;lpf4</title>
<path fill="none" stroke="black" d="M180.07,-21.83C200.75,-24.2 227.34,-27.25 248.73,-29.71"/>
<polygon fill="black" stroke="black" points="248.17,-33.16 258.5,-30.83 248.97,-26.21 248.17,-33.16"/>
</g>
<!-- gain5 -->
<g id="node5" class="node">
<title>gain5</title>
<path fill="none" stroke="black" stroke-width="2" d="M406.11,-52C406.11,-52 363.18,-52 363.18,-52 357.18,-52 351.18,-46 351.18,-40 351.18,-40 351.18,-28 351.18,-28 351.18,-22 357.18,-16 363.18,-16 363.18,-16 406.11,-16 406.11,-16 412.11,-16 418.11,-22 418.11,-28 418.11,-28 418.11,-40 418.11,-40 418.11,-46 412.11,-52 406.11,-52"/>
<text xml:space="preserve" text-anchor="middle" x="384.64" y="-29.8" font-family="monospace" font-size="14.00">gain(0.5)</text>
</g>
<!-- lpf4&#45;&gt;gain5 -->
<g id="edge4" class="edge">
<title>lpf4&#45;&gt;gain5</title>
<path fill="none" stroke="black" d="M314.52,-34C322.11,-34 330.61,-34 338.98,-34"/>
<polygon fill="black" stroke="black" points="338.7,-37.5 348.7,-34 338.7,-30.5 338.7,-37.5"/>
</g>
</g>
</svg>
