<?xml version="1.0" encoding="UTF-8" standalone="no"?>
<!DOCTYPE svg PUBLIC "-//W3C//DTD SVG 1.1//EN"
 "http://www.w3.org/Graphics/SVG/1.1/DTD/svg11.dtd">
<!-- Generated by graphviz version 14.1.1 (20251213.1925)
 -->
<!-- Pages: 1 -->
<svg width="284pt" height="177pt"
 viewBox="0.00 0.00 284.00 177.00" xmlns="http://www.w3.org/2000/svg" xmlns:xlink="http://www.w3.org/1999/xlink">
<g id="graph0" class="graph" transform="scale(1 1) rotate(0) translate(4 172.8)">
<polygon fill="white" stroke="none" points="-4,4 -4,-172.8 279.9,-172.8 279.9,4 -4,4"/>
<text xml:space="preserve" text-anchor="middle" x="137.95" y="-152.2" font-family="Times,serif" font-size="14.00">After expansion (9 nodes)</text>
<!-- saw1.0 -->
<g id="node1" class="node">
<title>saw1.0</title>
<path fill="none" stroke="black" d="M56.1,-36C56.1,-36 12,-36 12,-36 6,-36 0,-30 0,-24 0,-24 0,-12 0,-12 0,-6 6,0 12,0 12,0 56.1,0 56.1,0 62.1,0 68.1,-6 68.1,-12 68.1,-12 68.1,-24 68.1,-24 68.1,-30 62.1,-36 56.1,-36"/>
<text xml:space="preserve" text-anchor="middle" x="34.05" y="-13.8" font-family="monospace" font-size="14.00">saw(440)</text>
</g>
<!-- lpf2.0 -->
<g id="node4" class="node">
<title>lpf2.0</title>
<path fill="none" stroke="black" d="M157.47,-36C157.47,-36 119.6,-36 119.6,-36 113.6,-36 107.6,-30 107.6,-24 107.6,-24 107.6,-12 107.6,-12 107.6,-6 113.6,0 119.6,0 119.6,0 157.47,0 157.47,0 163.47,0 169.47,-6 169.47,-12 169.47,-12 169.47,-24 169.47,-24 169.47,-30 163.47,-36 157.47,-36"/>
<text xml:space="preserve" text-anchor="middle" x="138.53" y="-13.8" font-family="monospace" font-size="14.00">lpf(800)</text>
</g>
<!-- saw1.0&#45;&gt;lpf2.0 -->
<g id="edge1" class="edge">
<title>saw1.0&#45;&gt;lpf2.0</title>
<path fill="none" stroke="black" d="M68.32,-18C77.12,-18 86.72,-18 95.9,-18"/>
<polygon fill="black" stroke="black" points="95.69,-21.5 105.69,-18 95.69,-14.5 95.69,-21.5"/>
</g>
<!-- saw1.1 -->
<g id="node2" class="node">
<title>saw1.1</title>
<path fill="none" stroke="black" d="M56.1,-90C56.1,-90 12,-90 12,-90 6,-90 0,-84 0,-78 0,-78 0,-66 0,-66 0,-60 6,-54 12,-54 12,-54 56.1,-54 56.1,-54 62.1,-54 68.1,-60 68.1,-66 68.1,-66 68.1,-78 68.1,-78 68.1,-84 62.1,-90 56.1,-90"/>
<text xml:space="preserve" text-anchor="middle" x="34.05" y="-67.8" font-family="monospace" font-size="14.00">saw(550)</text>
</g>
<!-- lpf2.1 -->
<g id="node5" class="node">
<title>lpf2.1</title>
<path fill="none" stroke="black" d="M160.97,-90C160.97,-90 116.1,-90 116.1,-90 110.1,-90 104.1,-84 104.1,-78 104.1,-78 104.1,-66 104.1,-66 104.1,-60 110.1,-54 116.1,-54 116.1,-54 160.97,-54 160.97,-54 166.97,-54 172.97,-60 172.97,-66 172.97,-66 172.97,-78 172.97,-78 172.97,-84 166.97,-90 160.97,-90"/>
<text xml:space="preserve" text-anchor="middle" x="138.53" y="-67.8" font-family="monospace" font-size="14.00">lpf(1200)</text>
</g>
<!-- saw1.1&#45;&gt;lpf2.1 -->
<g id="edge2" class="edge">
<title>saw1.1&#45;&gt;lpf2.1</title>
<path fill="none" stroke="black" d="M68.32,-72C76.03,-72 84.36,-72 92.48,-72"/>
<polygon fill="black" stroke="black" points="92.21,-75.5 102.21,-72 92.21,-68.5 92.21,-75.5"/>
</g>
<!-- saw1.2 -->
<g id="node3" class="node">
<title>saw1.2</title>
<path fill="none" stroke="black" d="M56.1,-144C56.1,-144 12,-144 12,-144 6,-144 0,-138 0,-132 0,-132 0,-120 0,-120 0,-114 6,-108 12,-108 12,-108 56.1,-108 56.1,-108 62.1,-108 68.1,-114 68.1,-120 68.1,-120 68.1,-132 68.1,-132 68.1,-138 62.1,-144 56.1,-144"/>
<text xml:space="preserve" text-anchor="middle" x="34.05" y="-121.8" font-family="monospace" font-size="14.00">saw(660)</text>
</g>
<!-- lpf2.2 -->
<g id="node6" class="node">
<title>lpf2.2</title>
<path fill="none" stroke="black" d="M160.97,-144C160.97,-144 116.1,-144 116.1,-144 110.1,-144 104.1,-138 104.1,-132 104.1,-132 104.1,-120 104.1,-120 104.1,-114 110.1,-108 116.1,-108 116.1,-108 160.97,-108 160.97,-108 166.97,-108 172.97,-114 172.97,-120 172.97,-120 172.97,-132 172.97,-132 172.97,-138 166.97,-144 160.97,-144"/>
<text xml:space="preserve" text-anchor="middle" x="138.53" y="-121.8" font-family="monospace" font-size="14.00">lpf(1600)</text>
</g>
<!-- saw1.2&#45;&gt;lpf2.2 -->
<g id="edge3" class="edge">
<title>saw1.2&#45;&gt;lpf2.2</title>
<path fill="none" stroke="black" d="M68.32,-126C76.03,-126 84.36,-126 92.48,-126"/>
<polygon fill="black" stroke="black" points="92.21,-129.5 102.21,-126 92.21,-122.5 92.21,-129.5"/>
</g>
<!-- gain3.0 -->
<g id="node7" class="node">
<title>gain3.0</title>
<path fill="none" stroke="black" stroke-width="2" d="M263.9,-36C263.9,-36 220.97,-36 220.97,-36 214.97,-36 208.97,-30 208.97,-24 208.97,-24 208.97,-12 208.97,-12 208.97,-6 214.97,0 220.97,0 220.97,0 263.9,0 263.9,0 269.9,0 275.9,-6 275.9,-12 275.9,-12 275.9,-24 275.9,-24 275.9,-30 269.9,-36 263.9,-36"/>
<text xml:space="preserve" text-anchor="middle" x="242.44" y="-13.8" font-family="monospace" font-size="14.00">gain(0.3)</text>
</g>
<!-- lpf2.0&#45;&gt;gain3.0 -->
<g id="edge4" class="edge">
<title>lpf2.0&#45;&gt;gain3.0</title>
<path fill="none" stroke="black" d="M169.83,-18C178.33,-18 187.75,-18 196.89,-18"/>
<polygon fill="black" stroke="black" points="196.72,-21.5 206.72,-18 196.72,-14.5 196.72,-21.5"/>
</g>
<!-- gain3.1 -->
<g id="node8" class="node">
<title>gain3.1</title>
<path fill="none" stroke="black" stroke-width="2" d="M263.9,-90C263.9,-90 220.97,-90 220.97,-90 214.97,-90 208.97,-84 208.97,-78 208.97,-78 208.97,-66 208.97,-66 208.97,-60 214.97,-54 220.97,-54 220.97,-54 263.9,-54 263.9,-54 269.9,-54 275.9,-60 275.9,-66 275.9,-66 275.9,-78 275.9,-78 275.9,-84 269.9,-90 263.9,-90"/>
<text xml:space="preserve" text-anchor="middle" x="242.44" y="-67.8" font-family="monospace" font-size="14.00">gain(0.3)</text>
</g>
<!-- lpf2.1&#45;&gt;gain3.1 -->
<g id="edge5" class="edge">
<title>lpf2.1&#45;&gt;gain3.1</title>
<path fill="none" stroke="black" d="M173.47,-72C180.85,-72 188.77,-72 196.5,-72"/>
<polygon fill="black" stroke="black" points="196.49,-75.5 206.49,-72 196.49,-68.5 196.49,-75.5"/>
</g>
<!-- gain3.2 -->
<g id="node9" class="node">
<title>gain3.2</title>
<path fill="none" stroke="black" stroke-width="2" d="M263.9,-144C263.9,-144 220.97,-144 220.97,-144 214.97,-144 208.97,-138 208.97,-132 208.97,-132 208.97,-120 208.97,-120 208.97,-114 214.97,-108 220.97,-108 220.97,-108 263.9,-108 263.9,-108 269.9,-108 275.9,-114 275.9,-120 275.9,-120 275.9,-132 275.9,-132 275.9,-138 269.9,-144 263.9,-144"/>
<text xml:space="preserve" text-anchor="middle" x="242.44" y="-121.8" font-family="monospace" font-size="14.00">gain(0.3)</text>
</g>
<!-- lpf2.2&#45;&gt;gain3.2 -->
<g id="edge6" class="edge">
<title>lpf2.2&#45;&gt;gain3.2</title>
<path fill="none" stroke="black" d="M173.47,-126C180.85,-126 188.77,-126 196.5,-126"/>
<polygon fill="black" stroke="black" points="196.49,-129.5 206.49,-126 196.49,-122.5 196.49,-129.5"/>
</g>
</g>
</svg>
